<?xml version="1.0" encoding="UTF-8"?>
<svg id="katman_2" data-name="katman 2" xmlns="http://www.w3.org/2000/svg" viewBox="0 0 478.36 418.98">
  <defs>
    <style>
      .cls-1 {
        fill: none;
        stroke: #fff;
        stroke-width: 100px;
      }

      .cls-1, .cls-2 {
        stroke-linecap: round;
        stroke-linejoin: round;
      }

      .cls-2 {
        fill: #fff;
        stroke: #1d1d1b;
        stroke-width: 30px;
      }
    </style>
  </defs>
  <g id="katman_2-2" data-name="katman 2">
    <g>
      <path class="cls-1" d="m395.9,82.46h0c43.28,43.28,43.28,113.44,0,156.72l-110.76,110.76c-25.38,25.38-66.54,25.38-91.92,0l-110.76-110.76c-43.28-43.28-43.28-113.44,0-156.72h0c43.28-43.28,113.44-43.28,156.72,0h0s0,0,0,0c43.28-43.28,113.44-43.28,156.72,0Z"/>
      <path class="cls-1" d="m317.54,160.82l-39.18,39.18c-21.64,21.64-56.72,21.64-78.36,0h0c-21.64-21.64-21.64-56.72,0-78.36l39.18-39.18"/>
    </g>
    <g>
      <path class="cls-2" d="m395.9,82.46h0c43.28,43.28,43.28,113.44,0,156.72l-110.76,110.76c-25.38,25.38-66.54,25.38-91.92,0l-110.76-110.76c-43.28-43.28-43.28-113.44,0-156.72h0c43.28-43.28,113.44-43.28,156.72,0h0s0,0,0,0c43.28-43.28,113.44-43.28,156.72,0Z"/>
      <path class="cls-2" d="m317.54,160.82l-39.18,39.18c-21.64,21.64-56.72,21.64-78.36,0h0c-21.64-21.64-21.64-56.72,0-78.36l39.18-39.18"/>
    </g>
  </g>
</svg>